HIERARCHY
ROOT Hips
{
	OFFSET 0.000000 0.000000 0.000000
	CHANNELS 6 Xposition Yposition Zposition Yrotation Xrotation Zrotation
	JOINT Chest
	{
		OFFSET 0.000000 -0.009281 11.569106
		CHANNELS 3 Yrotation Xrotation Zrotation
		JOINT Chest2
		{
			OFFSET -0.000000 0.016865 9.269641
			CHANNELS 3 Yrotation Xrotation Zrotation
			JOINT Chest3
			{
				OFFSET -0.000000 0.000001 8.374491
				CHANNELS 3 Yrotation Xrotation Zrotation
				JOINT Chest4
				{
					OFFSET -0.000000 0.000001 8.374493
					CHANNELS 3 Yrotation Xrotation Zrotation
					JOINT Neck
					{
						OFFSET -0.000000 0.000002 12.152554
						CHANNELS 3 Yrotation Xrotation Zrotation
						JOINT Head
						{
							OFFSET -0.000000 0.040101 7.802319
							CHANNELS 3 Yrotation Xrotation Zrotation
							End Site
							{
								OFFSET -0.000000 0.020947 14.853096
							}
						}
					}
					JOINT RightCollar
					{
						OFFSET 2.894404 0.000001 6.791374
						CHANNELS 3 Yrotation Xrotation Zrotation
						JOINT RightShoulder
						{
							OFFSET 13.574684 0.000001 0.000000
							CHANNELS 3 Yrotation Xrotation Zrotation
							JOINT RightElbow
							{
								OFFSET 23.923903 0.000002 0.000000
								CHANNELS 3 Yrotation Xrotation Zrotation
								JOINT RightWrist
								{
									OFFSET 19.846718 0.012767 0.000000
									CHANNELS 3 Yrotation Xrotation Zrotation
									End Site
									{
										OFFSET 14.973145 0.000001 0.000000
									}
								}
							}
						}
					}
					JOINT LeftCollar
					{
						OFFSET -2.894404 0.000001 6.791374
						CHANNELS 3 Yrotation Xrotation Zrotation
						JOINT LeftShoulder
						{
							OFFSET -13.574684 -0.000001 0.000000
							CHANNELS 3 Yrotation Xrotation Zrotation
							JOINT LeftElbow
							{
								OFFSET -23.923903 -0.000002 0.000000
								CHANNELS 3 Yrotation Xrotation Zrotation
								JOINT LeftWrist
								{
									OFFSET -19.846718 0.012763 0.000000
									CHANNELS 3 Yrotation Xrotation Zrotation
									End Site
									{
										OFFSET -14.973145 -0.000001 0.000000
									}
								}
							}
						}
					}
				}
			}
		}
	}
	JOINT RightHip
	{
		OFFSET 9.469263 0.004643 0.045487
		CHANNELS 3 Yrotation Xrotation Zrotation
		JOINT RightKnee
		{
			OFFSET 0.000000 0.002661 -40.478676
			CHANNELS 3 Yrotation Xrotation Zrotation
			JOINT RightAnkle
			{
				OFFSET 0.000000 0.049106 -35.224068
				CHANNELS 3 Yrotation Xrotation Zrotation
				JOINT RightToe
				{
					OFFSET -0.000001 12.539529 -6.151390
					CHANNELS 3 Yrotation Xrotation Zrotation
					End Site
					{
						OFFSET -0.000001 5.044994 -1.291870
					}
				}
			}
		}
	}
	JOINT LeftHip
	{
		OFFSET -9.469263 0.004641 0.045487
		CHANNELS 3 Yrotation Xrotation Zrotation
		JOINT LeftKnee
		{
			OFFSET 0.000000 0.002661 -40.478676
			CHANNELS 3 Yrotation Xrotation Zrotation
			JOINT LeftAnkle
			{
				OFFSET 0.000000 0.049106 -35.224068
				CHANNELS 3 Yrotation Xrotation Zrotation
				JOINT LeftToe
				{
					OFFSET -0.000001 12.539529 -6.151390
					CHANNELS 3 Yrotation Xrotation Zrotation
					End Site
					{
						OFFSET -0.000001 5.044994 -1.291870
					}
				}
			}
		}
	}
}
MOTION
Frames: 15
Frame Time: 0.016667
-24.893728 34.638332 81.883629 -2.432230 0.683979 -92.363248 -2.180990 -1.929069 0.372525 -0.669676 -0.753612 0.171277 -0.669676 -0.753612 0.171277 -0.502038 -0.565397 0.127631 5.431824 -21.243370 -9.034596 7.233888 -3.147705 -14.804884 8.709557 -0.694047 -2.849280 47.644060 -17.911466 -7.087035 19.767918 -35.357007 40.427675 -24.542313 37.678616 68.717358 -8.216902 3.215847 -4.654476 -44.725124 -1.477104 15.377107 -29.890533 -54.316950 -22.063830 12.295530 7.891939 -53.250562 -3.280186 12.704293 -18.465744 9.668322 -19.724541 -16.873147 -0.049357 4.329638 11.439348 1.182219 1.851188 0.623389 -2.052094 -6.548021 -11.959703 1.396594 -26.060011 10.049541 3.525142 -11.231058 -0.313096 -9.419355 40.628212 -3.490469 
-25.366165 34.760120 82.034340 -2.386641 0.598508 -92.302008 -2.096034 -2.004180 0.379285 -0.680389 -0.769918 0.160887 -0.680389 -0.769918 0.160887 -0.510082 -0.577617 0.119806 5.453235 -21.189170 -9.109579 7.246819 -3.047214 -14.934335 8.695111 -0.723235 -2.825155 47.651750 -17.818825 -7.095366 19.729415 -35.370046 40.541459 -24.533232 37.590831 68.703336 -8.216817 3.225023 -4.639604 -44.645398 -1.577499 15.334654 -29.883188 -54.385569 -22.127936 12.302857 7.907518 -53.347145 -3.059334 12.849514 -17.926554 9.302409 -18.907622 -16.712694 -0.213617 2.829107 11.479150 1.053221 2.064961 0.526153 -2.061728 -6.647992 -11.787268 1.465513 -25.154632 9.550822 4.418682 -11.811253 -0.389158 -9.863498 40.484765 -3.765892 
-25.885967 34.909164 82.183487 -2.253059 0.484693 -92.189351 -1.998840 -2.032594 0.280342 -0.675152 -0.789097 0.159852 -0.675153 -0.789097 0.159852 -0.506150 -0.592001 0.119015 5.459656 -21.127519 -9.156518 7.240006 -2.933570 -15.017342 8.689568 -0.739776 -2.806485 47.628869 -17.744280 -7.080858 19.682594 -35.416115 40.696975 -24.508447 37.538931 68.713390 -8.212064 3.213945 -4.627423 -44.575471 -1.674802 15.290784 -29.900837 -54.419590 -22.169389 12.286345 7.930884 -53.367529 -2.853423 13.084614 -17.593205 8.883699 -18.049207 -16.542537 -0.264264 1.141896 11.544300 0.862501 2.309013 0.473239 -2.040685 -6.745993 -11.588690 1.440539 -24.151486 9.163794 5.026315 -12.196857 -0.554435 -9.822565 40.165347 -3.706854 
-26.446480 35.056923 82.327209 -2.037286 0.304735 -92.190164 -1.845628 -2.050384 0.226102 -0.657509 -0.804124 0.167739 -0.657509 -0.804124 0.167739 -0.492902 -0.603275 0.124937 5.450952 -21.060957 -9.153369 7.219792 -2.811036 -15.013934 8.674508 -0.786346 -2.788206 47.567025 -17.698890 -7.015771 19.618988 -35.478021 40.922023 -24.486640 37.532935 68.725521 -8.183785 3.185992 -4.602966 -44.571523 -1.733768 15.239725 -29.939192 -54.390214 -22.181669 12.271083 7.912978 -53.319390 -2.578967 13.457602 -17.250975 8.424030 -17.205040 -16.459450 -0.238243 -0.775975 11.950166 0.618191 2.616943 0.423242 -1.956970 -6.847231 -11.171166 1.313302 -23.059724 8.972317 5.425047 -12.276258 -0.718081 -9.510548 39.551508 -3.484027 
-27.051281 35.237492 82.460258 -1.742839 0.166559 -92.297562 -1.728550 -2.050333 0.214506 -0.636785 -0.818987 0.179629 -0.636786 -0.818987 0.179629 -0.477341 -0.614427 0.133866 5.438726 -20.992341 -9.098492 7.207982 -2.683941 -14.917688 8.640549 -0.827753 -2.767128 47.479640 -17.707474 -6.935292 19.587553 -35.523336 41.191139 -24.483436 37.538303 68.709394 -8.126190 3.145466 -4.578433 -44.640747 -1.716811 15.212175 -29.970583 -54.313849 -22.223250 12.286233 7.805380 -53.228129 -2.338058 14.035600 -16.791294 7.933453 -16.460109 -16.551408 -0.143442 -2.830560 12.405316 0.355352 2.943511 0.377112 -1.906300 -6.986146 -10.556186 1.080721 -21.702586 9.045277 5.722159 -12.183379 -0.893049 -9.069490 38.633657 -3.201368 
-27.715435 35.459282 82.567810 -1.377751 0.099848 -92.475502 -1.676347 -2.020282 0.220136 -0.617466 -0.831954 0.184240 -0.617466 -0.831954 0.184239 -0.462840 -0.624153 0.137338 5.428104 -20.921076 -8.998421 7.212066 -2.550966 -14.738886 8.585526 -0.874219 -2.742719 47.361000 -17.732143 -6.858747 19.649471 -35.552060 41.471423 -24.501623 37.492162 68.659561 -8.057723 3.114082 -4.527507 -44.727753 -1.621159 15.243160 -29.935486 -54.300369 -22.361751 12.299097 7.609866 -53.078302 -2.176290 14.830229 -16.188771 7.445761 -15.855126 -16.849926 0.045647 -4.918261 12.754151 0.072578 3.221786 0.358386 -1.901940 -7.173309 -9.747367 0.672797 -19.976872 9.347361 5.975531 -12.001608 -1.091165 -8.463399 37.415831 -2.878915 
-28.444510 35.706970 82.628517 -0.965837 0.029220 -92.689909 -1.636301 -1.996745 0.241945 -0.601010 -0.840381 0.178886 -0.601010 -0.840381 0.178886 -0.450505 -0.630463 0.133335 5.433446 -20.839573 -8.874855 7.251320 -2.397547 -14.512537 8.555429 -0.869468 -2.706943 47.214994 -17.719490 -6.860628 19.790220 -35.597310 41.749108 -24.531104 37.397509 68.590549 -8.003236 3.106840 -4.517078 -44.762225 -1.433490 15.340328 -29.918032 -54.383786 -22.502953 12.359173 7.386368 -52.904101 -2.020877 15.809569 -15.425926 6.991525 -15.395513 -17.441199 0.309389 -6.995249 13.108773 -0.225330 3.436452 0.351247 -1.881635 -7.413282 -8.835334 0.159894 -17.984725 9.675574 6.114714 -11.695308 -1.207944 -7.675072 35.922547 -2.476385 
-29.240032 35.963879 82.628349 -0.493552 -0.098657 -92.907798 -1.557979 -1.960943 0.273310 -0.585732 -0.849500 0.161742 -0.585732 -0.849500 0.161742 -0.439066 -0.637281 0.120490 5.460135 -20.737665 -8.748212 7.328941 -2.204961 -14.273979 8.550047 -0.815241 -2.672409 47.073097 -17.617565 -6.944349 19.921818 -35.704711 42.035918 -24.550055 37.298458 68.526967 -7.942855 3.096009 -4.523508 -44.775107 -1.259679 15.409708 -29.960512 -54.478685 -22.587690 12.412896 7.184208 -52.754677 -1.774356 16.868009 -14.610657 6.504873 -14.872848 -18.138452 0.654921 -9.037425 13.411443 -0.526645 3.486617 0.312653 -1.835898 -7.595001 -7.886499 -0.129033 -15.971685 9.639958 5.897583 -11.238275 -1.066034 -6.755679 34.198525 -2.025333 
-30.072206 36.260086 82.559593 -0.066664 -0.226919 -93.021118 -1.498955 -2.005452 0.235612 -0.569939 -0.860871 0.134153 -0.569939 -0.860870 0.134153 -0.427257 -0.645779 0.099810 5.508501 -20.612896 -8.637460 7.439959 -1.969060 -14.057424 8.549742 -0.731461 -2.692567 46.969377 -17.478562 -7.067982 20.026376 -35.846510 42.326549 -24.564220 37.231105 68.482578 -7.880605 3.031820 -4.574079 -44.805723 -1.161639 15.426068 -30.016813 -54.506825 -22.637660 12.441314 7.025863 -52.651852 -1.710281 18.084922 -13.941177 6.231150 -14.823467 -18.793779 0.978506 -10.768918 13.437986 -3.216670 3.669916 0.072447 -1.860374 -7.709579 -7.185047 -0.167681 -14.218328 9.243820 5.316160 -10.597106 -0.629637 -5.717669 32.361539 -1.593270 
-30.934664 36.575588 82.426064 0.389226 -0.355814 -93.099604 -1.459362 -2.036406 0.189917 -0.546032 -0.875750 0.106775 -0.546032 -0.875750 0.106775 -0.409363 -0.656909 0.079297 5.570386 -20.477267 -8.552837 7.567511 -1.712777 -13.883936 8.560173 -0.666142 -2.688242 46.916081 -17.299749 -7.239348 20.091415 -35.957859 42.617457 -24.560262 37.211297 68.476997 -7.844267 2.959562 -4.655709 -44.847917 -1.211577 15.408413 -30.070523 -54.465271 -22.674845 12.443543 6.992679 -52.592491 -1.695070 19.380392 -13.463442 5.965042 -14.909345 -19.064958 1.314368 -12.289343 13.287047 -5.380344 3.868935 -0.145690 -1.907297 -7.699455 -6.754948 -0.161684 -12.620274 8.463353 4.614222 -9.840179 0.223624 -4.668621 30.424152 -1.249573 
-31.733927 37.128330 82.732498 0.505472 0.512544 -93.220252 -2.435873 -2.325162 0.212206 -0.517399 -0.894479 0.084107 -0.517399 -0.894480 0.084106 -0.387918 -0.670932 0.062321 5.635394 -20.355343 -8.493439 7.694636 -1.482178 -13.755191 8.553837 -0.651103 -2.697743 46.901345 -17.167534 -7.382202 20.107208 -36.023073 42.903082 -24.541341 37.219193 68.498451 -7.836768 2.909839 -4.706800 -44.923339 -1.375802 15.368402 -30.155589 -54.375826 -22.640180 12.415782 7.040960 -52.557271 -2.773946 20.272620 -13.020320 5.555329 -14.761765 -18.945095 1.654100 -14.139689 13.056971 -6.999707 4.353892 -0.254241 -3.018448 -7.738942 -6.455564 -0.252083 -11.870987 7.790101 3.989236 -7.541246 1.068204 -3.619857 27.579735 -0.919016 
-32.539288 37.532795 82.973595 0.661919 1.038040 -93.243980 -3.032283 -2.552881 0.153798 -0.500078 -0.929071 0.058734 -0.500078 -0.929071 0.058734 -0.374961 -0.696852 0.043289 5.699262 -20.246677 -8.446179 7.817315 -1.276486 -13.648751 8.558358 -0.623117 -2.680670 46.866258 -17.073757 -7.483477 20.129621 -36.065622 43.137487 -24.533650 37.216939 68.516394 -7.850073 2.878469 -4.756621 -45.016124 -1.488253 15.347952 -30.257267 -54.280367 -22.542179 12.357430 7.140658 -52.610154 -3.426746 21.202613 -12.550519 5.203960 -14.732429 -18.890577 1.913800 -15.516668 12.690364 -8.217775 4.128311 -0.400820 -3.830220 -7.703168 -6.313386 -0.362785 -10.952604 7.421991 3.636018 -5.837981 1.510393 -2.672658 25.138245 -0.636303 
-33.327763 38.142563 83.076332 0.847347 1.253861 -93.209631 -3.288448 -2.727756 0.047878 -0.500035 -0.972745 0.037075 -0.500035 -0.972746 0.037075 -0.374957 -0.729590 0.027010 5.768472 -20.160246 -8.414073 7.946905 -1.111908 -13.568285 8.588028 -0.547806 -2.680594 46.811453 -17.019394 -7.531565 20.168444 -36.114147 43.293451 -24.542130 37.185599 68.526345 -7.865441 2.855928 -4.831748 -45.103226 -1.501940 15.365393 -30.335711 -54.196721 -22.449493 12.312890 7.311536 -52.760571 -3.944248 22.092583 -12.179236 4.828630 -14.729154 -18.992591 2.311326 -16.386848 12.746643 -6.490377 3.412744 -0.178212 -4.167163 -7.648813 -6.169801 -0.459662 -9.954525 7.100026 3.346069 -4.589296 1.880248 -1.988648 23.061618 -0.497301 
-34.061775 38.681690 83.111664 1.057885 1.249373 -93.168227 -3.304206 -2.839420 -0.049481 -0.511645 -1.008158 0.018555 -0.511645 -1.008159 0.018555 -0.383694 -0.756136 0.013071 5.840422 -20.115216 -8.400174 8.078895 -1.024066 -13.520409 8.619828 -0.524352 -2.688238 46.760544 -16.954109 -7.505239 20.213627 -36.147677 43.393824 -24.555370 37.154559 68.533223 -7.863057 2.795842 -4.885185 -45.195522 -1.459420 15.382776 -30.330766 -54.093223 -22.447698 12.293147 7.461650 -52.923260 -4.171199 22.841886 -11.894368 4.319149 -14.485931 -19.143922 2.978504 -16.467207 13.235424 -5.173525 2.079651 -0.043763 -4.504786 -7.563838 -5.944453 -0.483600 -9.008253 6.843196 3.305885 -3.452152 2.150113 -1.409388 21.129817 -0.355703 
-34.764950 39.252731 83.141907 1.402072 0.928579 -93.178144 -3.009696 -2.782850 -0.060131 -0.523210 -1.028453 0.002500 -0.523210 -1.028455 0.002499 -0.392392 -0.771344 0.000994 5.919561 -20.115324 -8.414600 8.218405 -1.019590 -13.522367 8.677591 -0.450269 -2.700354 46.729887 -16.944255 -7.528231 20.222793 -36.151310 43.478785 -24.562052 37.147305 68.546249 -7.846573 2.778792 -4.897231 -45.289014 -1.428204 15.409803 -30.255423 -53.984227 -22.517023 12.287945 7.491659 -53.035890 -3.961027 23.561349 -11.573916 3.633721 -13.859673 -19.107550 3.769264 -15.765642 13.105434 -3.949952 0.250851 -0.032406 -4.481686 -7.321921 -5.745570 -0.446149 -8.194607 6.599684 3.205303 -2.295319 2.462506 -0.907459 19.262527 -0.263295 
